# xmcd
#
# Track frame offsets:
#	150
#	12353
#	32382
#	49949
#	63656
#	82613
#	96449
#	113993
#	132281
#	148935
#	163523
#	183068
#	201065
#	217106
#	236413
#	249665
#
# Disc length: 3609 seconds
#
# Revision: 1
# Processed by: cddbd v1.5.2PL0 Copyright (c) Steve Scherf et al.
# Submitted via: audiograbber 1.83.01
#
DISCID=dc0e1710
DTITLE=John Michael Montgomery - Country Karaoke Classics #49
DYEAR=1900
DGENRE=karaoke
TTITLE0=Sold (The Grundy County Auction)
TTITLE1=I Swear
TTITLE2=The Little Girl
TTITLE3=No Man's Land
TTITLE4=I Miss You A Little
TTITLE5=Life's A Dance
TTITLE6=Friends
TTITLE7=I Love The Way You Love Me
TTITLE8=I Can Love You Like That
TTITLE9=Cowboy Love
TTITLE10=How Was I To Know
TTITLE11=Rope The Moon
TTITLE12=Angel In My Eyes
TTITLE13=Til Nothing Comes Between Us
TTITLE14=Be My Baby Tonight
TTITLE15=Letters From Home
EXTD=
EXTT0=
EXTT1=
EXTT2=
EXTT3=
EXTT4=
EXTT5=
EXTT6=
EXTT7=
EXTT8=
EXTT9=
EXTT10=
EXTT11=
EXTT12=
EXTT13=
EXTT14=
EXTT15=
PLAYORDER=
